<svg xmlns="http://www.w3.org/2000/svg" viewBox="0 0 1017.99 381.95"><defs><style>.cls-1{fill:#153149;}.cls-2{fill:#20b0ff;}</style></defs><g id="Layer_2" data-name="Layer 2"><g id="Layer_1-2" data-name="Layer 1"><path class="cls-1" d="M127.8,179.68,94.32,146.35a24.41,24.41,0,0,1-2.84-2.82c-8.26-11.41-18.88-11.35-30.8-6.87A23.82,23.82,0,0,1,29.88,122C25.31,108.36,32.12,93.9,45,90c13.57-4.13,27.5,3.22,31,16.87,1,4.15,2.69,5.8,6.68,5.09,7-1.26,11.81,2,16.56,6.8,16.12,16.4,32.55,32.5,49,48.61a11.54,11.54,0,0,1,3.91,9.18c-.24,10.66.18,21.34-.19,32a13.44,13.44,0,0,1-3.4,8.26c-17.52,17.83-35.36,35.34-53,53.08-3,3.05-6.18,4.77-10.55,4.25a64.88,64.88,0,0,0-7.28,0c-.48,2.35-.87,4.42-1.33,6.48-2.74,12.27-13.93,19.83-27.08,18.31-12.09-1.39-21-12-20.9-24.69s9.12-23.32,21.31-24.13c4.38-.3,8.86.81,13.29,1.35,1.79.22,3.56.67,5.35,1,8.5,1.34,14.69-2.1,20.49-8.32,11.47-12.3,23.61-24,35.46-35.93,1.34-1.35,2.55-2.84,4.75-5.32H116.28c-16.33,0-32.67,0-49,0-2.67,0-4.42.29-5.69,3.34C55,221.76,38.75,229.43,23.12,224.63A33.13,33.13,0,0,1,.45,187.48a32.18,32.18,0,0,1,33.68-27.21C46,161,54.8,166.76,61.18,176.72c1,1.63,3.35,3.47,5.09,3.49,19.67.21,39.34.08,59,0A17.39,17.39,0,0,0,127.8,179.68ZM32.64,181a11.86,11.86,0,0,0-11.95,11.56c-.06,6,5.74,12.14,11.57,12.25a11.88,11.88,0,0,0,12.06-11.42C44.4,186.62,39.12,181,32.64,181ZM52.7,267.71c-4.8,0-8.25,2.75-8.23,6.66,0,3.67,4,7.4,8,7.41a7.33,7.33,0,0,0,7.13-7.38C59.59,270.26,57,267.75,52.7,267.71Zm6.88-154.18c0-3.78-3.77-7.34-7.92-7.43-3.65-.07-6.46,2.81-6.55,6.71a6.86,6.86,0,0,0,7.16,7.25C56.4,120.1,59.55,117.29,59.58,113.53Z"/><path class="cls-1" d="M252.49,203.08c1.34,1.65,2.15,2.83,3.15,3.82C270,221.31,284.32,235.72,298.8,250a7.76,7.76,0,0,0,5.18,2.06,97.48,97.48,0,0,0,16.21-1.79c18.79-4.21,36,10.69,32.77,28.67a24.56,24.56,0,0,1-48.33-.29c-.23-1.3-.32-2.63-.5-4.16a8.84,8.84,0,0,0-2.86-.5c-8.66,1.37-14.45-2.64-20.28-8.78-15.48-16.32-31.6-32-47.65-47.8a11.85,11.85,0,0,1-4-9.55c.24-10.66-.15-21.34.14-32a11.83,11.83,0,0,1,3-7.35c16.62-16.85,33.57-33.37,50.19-50.21,4.37-4.43,8.92-7.25,15.33-6.51a27.84,27.84,0,0,0,5.61-.43c1.41-3.92,2.21-7.75,4.05-11C313.11,90.88,325.1,86.7,336,90.06s17.76,13.6,16.92,25.39c-1.23,17.36-17.24,26.75-34.18,20.91-5.73-2-12.37-1.39-18.61-1.76-.93,0-2.11.9-2.89,1.67q-21.08,21-42,42.09a11.08,11.08,0,0,0-1,1.75c2.17.11,3.9.26,5.63.26,17.84,0,35.67-.06,53.51.11,3.53,0,5.52-.82,7.42-4.15a31.79,31.79,0,0,1,41.62-12.84A33.66,33.66,0,0,1,379.05,205,32.3,32.3,0,0,1,340,224.63a31.91,31.91,0,0,1-20.19-17.49c-1.49-3.14-3.22-4.33-6.74-4.3-18.51.14-37,0-55.52,0C256.11,202.82,254.68,203,252.49,203.08Zm84.64-9.74A11.36,11.36,0,0,0,348,204.75c6.4.14,13-5.56,13.11-11.35.14-6.3-5.73-12.3-12-12.3A12.29,12.29,0,0,0,337.13,193.34Zm-8.47,87.81c4.16,0,7.68-3.3,7.55-7.06-.12-3.36-3.8-6.74-7.47-6.84a7.26,7.26,0,0,0-7.36,6.72A7,7,0,0,0,328.66,281.15Zm.3-161.24c4,0,7.23-3,7.14-6.67-.08-3.46-3.59-6.44-7.52-6.39a6.69,6.69,0,0,0-6.75,6.5C321.8,117.2,324.8,120,329,119.91Z"/><path class="cls-1" d="M179.17,124.34c.13-2.39.26-3.84.26-5.3,0-16.83-.1-33.66.1-50.49,0-3.58-.9-5.5-4.14-7.37-22.11-12.77-22.82-43.7-1.45-56.66,15.22-9.22,35.57-3.87,44.78,11.8,9,15.38,3.76,35.64-11.9,44.12-3.76,2-5.17,4.19-5.13,8.38.13,17.16-.06,34.32-.1,51.48a33.76,33.76,0,0,0,.7,4.39c2.1-1.24,3.9-1.9,5.16-3.12q13.26-12.88,26.29-26a7.21,7.21,0,0,0,1.59-4c1.1-9.23,2-18.49,3.08-27.73,1.2-10.47,9.39-19.67,19.29-21.81a25.32,25.32,0,0,1,27.45,11.82A25,25,0,0,1,282.7,83.2c-4.29,5-9.86,7.24-16.29,7.55-3.13.14-6.29,0-10.15,0,0,4.09.2,8-.08,12-.13,1.82-.68,4.09-1.9,5.29-11.78,11.54-23.76,22.87-35.61,34.35A12.23,12.23,0,0,1,209.3,146c-13.17-.22-26.34.09-39.5-.23a12.89,12.89,0,0,1-7.83-3.21c-11.38-10.75-22.36-21.93-33.7-32.73-3.15-3-2.93-6.46-3-10.08,0-2.81,0-5.61,0-9-2.77,0-5,0-7.27,0-13.45.07-22.46-7.18-25.17-20.25-2.21-10.7,4.55-23.13,14.81-27.25,11.14-4.47,24.76-.24,31.2,10a26.37,26.37,0,0,1,4,9.59c1.44,9.19,2.12,18.5,3.36,27.73a11.14,11.14,0,0,0,2.54,6.08c8.3,8.43,16.82,16.63,25.37,24.81C175.32,122.59,177.05,123.16,179.17,124.34Zm11.57-81.45c6.64,0,11.54-4.42,11.62-10.44.09-6.31-5.86-12.49-11.93-12.38S178.9,26.1,179,32.35C179.11,38.08,184.49,42.9,190.74,42.89Zm-73.27,30c4.13-.12,7-3.09,6.82-7a7.67,7.67,0,0,0-8.2-7,6.89,6.89,0,0,0-6.63,6.75C109.49,69.66,113.18,73,117.47,72.85ZM264.59,59.27c-4.09,0-7.62,3.32-7.62,7.08,0,3.93,3.36,6.85,7.7,6.7s7.65-3.43,7.46-7.15C272,62.41,268.34,59.23,264.59,59.27Z"/><path class="cls-1" d="M177.84,259.13c-2.33,2-4.78,3.91-7,6.06-7.5,7.35-15,14.66-22.24,22.29a14.32,14.32,0,0,0-3.16,7.37c-1.36,8.86-1.66,17.94-3.58,26.67-2.22,10.15-11.8,17.56-21.9,18.42-11.06.95-20.87-4.34-25.15-13.56-4.66-10-2.64-20.78,5.29-29,5.16-5.34,11.52-7.12,18.65-6.52,4.25.35,6.74-.65,6.11-5.59-.7-5.44,1.93-9.25,5.81-13,10.48-10,20.65-20.35,30.78-30.71,3-3.06,6.14-4.64,10.53-4.57,12.16.19,24.33.13,36.5-.06a12.91,12.91,0,0,1,10.19,4.05C230.18,252.67,242,264,253.39,275.63c1.66,1.69,2.47,4.47,3,6.89s.38,5.23.55,8.34c2.83,0,5.29-.06,7.74,0,11.33.28,20.11,7.28,23.22,18.45a23.58,23.58,0,0,1-10.14,26.56c-8.86,5.8-21.4,5.29-29.52-1.26-6.59-5.33-9.7-12.52-10.83-20.71-.35-2.48-1-5-.73-7.45,1.37-11.8-4.08-20.07-12.73-27.33-6.23-5.22-11.63-11.42-17.45-17.14a48,48,0,0,0-4.1-3.12c-.26,2.38-.53,3.76-.54,5.15-.1,16.5,0,33-.31,49.49,0,3.61,1,5.54,4.24,7.33,11.3,6.18,17.25,16,17.33,28.89.08,12.11-5.36,21.55-15.73,27.75a32.52,32.52,0,0,1-44.64-12c-8.86-15.88-3.24-36.81,12.42-45.08,3.27-1.74,4.46-3.55,4.41-7.23-.23-16.32-.14-32.65-.19-49,0-1.44-.18-2.87-.27-4.31ZM191.21,361c6,0,11.76-5.28,11.91-11.1.15-6.17-5.71-12-12.14-12-6.67-.06-12.33,4.95-12.42,11C178.47,355.16,184.46,360.92,191.21,361ZM124.73,314.8a7.38,7.38,0,0,0-7.56-7c-4,0-7.56,3.38-7.59,7.09s3.57,6.94,7.68,7A7.23,7.23,0,0,0,124.73,314.8ZM264,322c3.87,0,8.22-3.91,8.14-7.37s-3.51-6.53-7.52-6.55-7.81,3.4-7.85,6.93C256.7,318.3,260.44,321.92,264,322Z"/><path class="cls-2" d="M32.64,181c6.48,0,11.76,5.63,11.68,12.39A11.88,11.88,0,0,1,32.26,204.8c-5.83-.11-11.63-6.25-11.57-12.25A11.86,11.86,0,0,1,32.64,181Z"/><path class="cls-2" d="M52.7,267.71c4.31,0,6.89,2.55,6.86,6.69a7.33,7.33,0,0,1-7.13,7.38c-3.92,0-7.94-3.74-8-7.41C44.45,270.46,47.9,267.66,52.7,267.71Z"/><path class="cls-2" d="M59.58,113.53c0,3.76-3.18,6.57-7.31,6.53a6.86,6.86,0,0,1-7.16-7.25c.09-3.9,2.9-6.78,6.55-6.71C55.81,106.19,59.6,109.75,59.58,113.53Z"/><path class="cls-2" d="M337.13,193.34a12.29,12.29,0,0,1,11.95-12.24c6.31,0,12.18,6,12,12.3-.13,5.79-6.71,11.49-13.11,11.35A11.36,11.36,0,0,1,337.13,193.34Z"/><path class="cls-2" d="M328.66,281.15a7,7,0,0,1-7.28-7.18,7.26,7.26,0,0,1,7.36-6.72c3.67.1,7.35,3.48,7.47,6.84C336.34,277.85,332.82,281.14,328.66,281.15Z"/><path class="cls-2" d="M329,119.91c-4.16,0-7.16-2.71-7.13-6.56a6.69,6.69,0,0,1,6.75-6.5c3.93,0,7.44,2.93,7.52,6.39C336.19,116.86,333,119.87,329,119.91Z"/><path class="cls-2" d="M190.74,42.89c-6.25,0-11.63-4.81-11.73-10.54-.11-6.25,5.39-12.17,11.42-12.28s12,6.07,11.93,12.38C202.28,38.47,197.38,42.87,190.74,42.89Z"/><path class="cls-2" d="M117.47,72.85c-4.29.12-8-3.19-8-7.19a6.89,6.89,0,0,1,6.63-6.75,7.67,7.67,0,0,1,8.2,7C124.51,69.76,121.6,72.73,117.47,72.85Z"/><path class="cls-2" d="M264.59,59.27c3.75,0,7.37,3.14,7.54,6.63.19,3.72-3.24,7-7.46,7.15s-7.7-2.77-7.7-6.7C257,62.59,260.5,59.31,264.59,59.27Z"/><path class="cls-2" d="M191.21,361c-6.75-.05-12.74-5.81-12.65-12.15.09-6,5.75-11.05,12.42-11,6.43.07,12.29,5.87,12.14,12C203,355.69,197.26,361,191.21,361Z"/><path class="cls-2" d="M124.73,314.8a7.23,7.23,0,0,1-7.47,7.07c-4.11-.05-7.7-3.32-7.68-7s3.59-7.05,7.59-7.09A7.38,7.38,0,0,1,124.73,314.8Z"/><path class="cls-2" d="M264,322c-3.53,0-7.27-3.65-7.23-7,0-3.53,3.9-6.94,7.85-6.93s7.43,3,7.52,6.55S267.84,322,264,322Z"/><path class="cls-1" d="M667.28,219.65c-10.17,8-20.89,9.19-32.16,3.86-12.46-5.9-19.51-16.3-21-29.62-2.4-20.69,10.74-38,30.59-41.35a32.72,32.72,0,0,1,11.35.62c3.51.7,6.84,2.35,11,3.85,0-9.43,0-18.49,0-27.56,0-7.51,3.46-11.08,10-10.64,5.71.39,8.68,3.62,8.72,10,.08,15,0,30,0,45q0,20.49,0,41c0,6.88-2.2,10.61-6.91,11.8C674.44,227.72,670.84,225.61,667.28,219.65Zm.66-29.48c-.05-10.73-8.05-19.24-18.12-19.3-9.24-.06-17.14,8.41-17.17,18.39,0,10.55,7.77,18.8,17.83,18.85A17.56,17.56,0,0,0,667.94,190.17Z"/><path class="cls-1" d="M979.79,200.44c4.14-9,7.67-16.6,11.19-24.24,2.71-5.89,5.21-11.89,8.18-17.64,2.67-5.17,7.38-7,12.59-5.5s7.62,6.06,5.45,10.74c-13.23,28.5-26.43,57-39.86,85.41-4.81,10.17-14,14.9-25.33,13.8-5.76-.56-10-4.69-10.11-9.85-.1-4.84,3.36-9,9.51-8.74,7.27.33,9.08-3.93,12.11-9,5.28-8.88,4.41-16.37-.33-25.27C955.38,195.47,949,180.08,942,165c-2-4.37-1.32-8.18,2.61-11,3.68-2.65,9.49-2.4,12.51.73a24.59,24.59,0,0,1,4.21,6.69c5.29,11.29,10.42,22.65,15.65,34C977.54,196.7,978.35,197.9,979.79,200.44Z"/><path class="cls-1" d="M603,190.21c.33,20.4-15.37,36.49-35.94,36.85-21.16.37-38-15.32-38.38-35.72-.37-21.33,15.81-39,36.1-39.32C586.08,151.64,602.67,168.21,603,190.21Zm-19-.14c.06-10.59-8-19.41-17.84-19.53-10.38-.12-18.55,8.36-18.54,19.26,0,9.94,8.59,18.85,18.13,18.84C575.66,208.62,584,200.18,584,190.07Z"/><path class="cls-1" d="M718.16,196.18c1.16,8.89,12.08,16,22.84,13.28a45.27,45.27,0,0,0,6.08-2.23c5-2.08,10.28-.56,12.47,3.66,2.27,4.39.54,9.17-5,11.84-13.13,6.38-26.51,6.88-39.13-.9-13.18-8.13-18.23-20.86-16.93-35.93,2-23,20.79-37.32,42.63-32.92,15.53,3.12,27.86,20.65,25.5,36.32-.65,4.34-2.81,6.69-7.7,6.61-12.82-.2-25.64,0-38.47,0A23.38,23.38,0,0,0,718.16,196.18Zm29.26-14.34c-1.52-7.16-7.85-12.33-14.49-12s-13,5.7-13.86,12Z"/><path class="cls-1" d="M816.52,219.9c-7.08,4.95-14.34,8.21-22.71,7.33-12.46-1.31-21.12-10.66-21.17-22.48,0-12.52,7.59-21.22,20.61-22.68,7.38-.83,14.86-.76,22.31-1.09-.18-6.2-4.14-11-10.59-11.14a57.91,57.91,0,0,0-15.14,2.2c-6.28,1.61-9.85.9-12-3.53s-.41-9.26,4.4-12.4c12.33-8,35.57-5,45.32,6,5,5.65,7,12.43,7.11,19.78.15,11.49.06,23,.12,34.49,0,4.47-.94,8.47-5.7,10-5,1.63-8.77-.3-11.35-4.76C817.36,221.07,817,220.54,816.52,219.9Zm-1.58-23.24c-5.91,0-11.53-.73-16.79.31-2.75.54-5.62,3.84-7,6.61-.65,1.34,1.48,5.27,3.34,6.4,5.91,3.58,11.47.8,16.84-2.18C815.93,205.26,815.78,201.31,814.94,196.66Z"/><path class="cls-1" d="M909.06,170.83c0,14.24,0,28,0,41.79a51.71,51.71,0,0,1-.26,6.48c-.68,5.23-4.4,8.22-9.68,8-5-.24-8.24-3.46-8.3-8.73-.15-13.83-.12-27.65-.15-41.47,0-1.79,0-3.58,0-4.37-4.92-1.76-9.17-2.82-12.87-4.86-1.33-.72-1.84-3.83-1.86-5.86,0-6.15,2.71-7.93,14-9.44.23-2.31.45-4.74.7-7.18,1.43-14.16,10.22-22.68,24.54-23.28a46.82,46.82,0,0,1,12.82,1.2c5.54,1.33,8.08,5.29,7.55,10.19-.49,4.44-3.87,7-9.84,7.19-2.32.07-4.64-.45-7-.53-6.46-.24-10.68,4.2-9.62,10.42.18,1,2.17,2.28,3.41,2.39,3.81.32,7.66,0,11.48.17,5.29.2,8.13,3.31,8.18,8.69s-3.1,9-8.3,9.21C919.44,170.94,915,170.83,909.06,170.83Z"/><path class="cls-1" d="M492.41,227.19c-18.36-.28-31.54-9.9-37.28-25.45-5.05-13.66-.57-30.57,10.73-40.53,11.65-10.26,27.91-12.33,41.37-5.09a26.13,26.13,0,0,1,6.33,4.77c3.72,3.85,3.79,8,.6,11.6s-7.32,4-11.56,1.28c-7.59-4.89-15.38-5.05-22-.43a20.6,20.6,0,0,0-7.94,21.19c1.67,7.51,8.34,14.28,16.38,14.61,4.65.19,9.37-2.44,14.13-3.43,2.89-.61,6.38-1.58,8.8-.53,6.86,3,7.22,10.44.94,15.17A34.66,34.66,0,0,1,492.41,227.19Z"/><path class="cls-1" d="M847.88,189.08c0-9.16-.06-18.31,0-27.47.05-5.88,3.15-8.91,8.91-9s9.87,3.34,9.89,8.82q.12,27.72-.06,55.43c0,6.34-3.73,10.12-9.27,10.16-5.71,0-9.43-3.94-9.51-10.48-.1-9.15,0-18.31,0-27.46Z"/><path class="cls-1" d="M856.53,142.75a9.49,9.49,0,0,1-9.09-9.84,9.24,9.24,0,0,1,9.61-9.25,10,10,0,0,1,9.73,10.43C866.47,139.17,862,143,856.53,142.75Z"/></g></g></svg>